<svg width="800" height="450" viewBox="0 0 800 450" fill="none" xmlns="http://www.w3.org/2000/svg">
  <!-- Defs for gradients -->
  <defs>
    <!-- Gradients for depth -->
    <radialGradient id="nodeGlow1" cx="50%" cy="50%" r="50%">
      <stop offset="0%" style="stop-color:#7aa2f7;stop-opacity:0.5" />
      <stop offset="100%" style="stop-color:#7aa2f7;stop-opacity:0" />
    </radialGradient>
    
    <radialGradient id="nodeGlow2" cx="50%" cy="50%" r="50%">
      <stop offset="0%" style="stop-color:#bb9af7;stop-opacity:0.5" />
      <stop offset="100%" style="stop-color:#bb9af7;stop-opacity:0" />
    </radialGradient>
    
    <radialGradient id="nodeGlow3" cx="50%" cy="50%" r="50%">
      <stop offset="0%" style="stop-color:#9ece6a;stop-opacity:0.5" />
      <stop offset="100%" style="stop-color:#9ece6a;stop-opacity:0" />
    </radialGradient>
  </defs>
  
  <!-- ============ CENTER: Binary Tree (Larger and Centered) ============ -->
  
  <!-- Glow effects behind connections -->
  <g opacity="0.35">
    <line x1="400" y1="70" x2="220" y2="180" stroke="#7aa2f7" stroke-width="14" stroke-linecap="round"/>
    <line x1="400" y1="70" x2="580" y2="180" stroke="#7aa2f7" stroke-width="14" stroke-linecap="round"/>
  </g>
  
  <!-- Main connections (edges) -->
  <line x1="400" y1="70" x2="220" y2="180" stroke="#7aa2f7" stroke-width="5" stroke-linecap="round"/>
  <line x1="400" y1="70" x2="580" y2="180" stroke="#7aa2f7" stroke-width="5" stroke-linecap="round"/>
  
  <line x1="220" y1="180" x2="130" y2="290" stroke="#bb9af7" stroke-width="4.5" stroke-linecap="round"/>
  <line x1="220" y1="180" x2="310" y2="290" stroke="#bb9af7" stroke-width="4.5" stroke-linecap="round"/>
  
  <line x1="580" y1="180" x2="490" y2="290" stroke="#bb9af7" stroke-width="4.5" stroke-linecap="round"/>
  <line x1="580" y1="180" x2="670" y2="290" stroke="#bb9af7" stroke-width="4.5" stroke-linecap="round"/>
  
  <line x1="130" y1="290" x2="80" y2="380" stroke="#9ece6a" stroke-width="4" stroke-linecap="round"/>
  <line x1="130" y1="290" x2="180" y2="380" stroke="#9ece6a" stroke-width="4" stroke-linecap="round"/>
  
  <line x1="310" y1="290" x2="260" y2="380" stroke="#9ece6a" stroke-width="4" stroke-linecap="round"/>
  <line x1="310" y1="290" x2="360" y2="380" stroke="#9ece6a" stroke-width="4" stroke-linecap="round"/>
  
  <line x1="490" y1="290" x2="440" y2="380" stroke="#9ece6a" stroke-width="4" stroke-linecap="round"/>
  <line x1="490" y1="290" x2="540" y2="380" stroke="#9ece6a" stroke-width="4" stroke-linecap="round"/>
  
  <line x1="670" y1="290" x2="620" y2="380" stroke="#9ece6a" stroke-width="4" stroke-linecap="round"/>
  <line x1="670" y1="290" x2="720" y2="380" stroke="#9ece6a" stroke-width="4" stroke-linecap="round"/>
  
  <!-- Root node (larger) -->
  <circle cx="400" cy="70" r="60" fill="url(#nodeGlow1)"/>
  <circle cx="400" cy="70" r="42" fill="#7aa2f7"/>
  <circle cx="400" cy="70" r="35" fill="#1a1b26"/>
  <circle cx="400" cy="70" r="22" fill="#7aa2f7"/>
  <circle cx="400" cy="70" r="16" fill="#24283b"/>
  <circle cx="400" cy="70" r="7" fill="#7aa2f7"/>
  
  <!-- Second level nodes -->
  <circle cx="220" cy="180" r="52" fill="url(#nodeGlow2)"/>
  <circle cx="220" cy="180" r="38" fill="#bb9af7"/>
  <circle cx="220" cy="180" r="31" fill="#1a1b26"/>
  <circle cx="220" cy="180" r="20" fill="#bb9af7"/>
  <circle cx="220" cy="180" r="14" fill="#24283b"/>
  <circle cx="220" cy="180" r="6" fill="#bb9af7"/>
  
  <circle cx="580" cy="180" r="52" fill="url(#nodeGlow2)"/>
  <circle cx="580" cy="180" r="38" fill="#bb9af7"/>
  <circle cx="580" cy="180" r="31" fill="#1a1b26"/>
  <circle cx="580" cy="180" r="20" fill="#bb9af7"/>
  <circle cx="580" cy="180" r="14" fill="#24283b"/>
  <circle cx="580" cy="180" r="6" fill="#bb9af7"/>
  
  <!-- Third level nodes -->
  <circle cx="130" cy="290" r="44" fill="url(#nodeGlow3)"/>
  <circle cx="130" cy="290" r="34" fill="#9ece6a"/>
  <circle cx="130" cy="290" r="27" fill="#1a1b26"/>
  <circle cx="130" cy="290" r="17" fill="#9ece6a"/>
  <circle cx="130" cy="290" r="11" fill="#24283b"/>
  
  <circle cx="310" cy="290" r="44" fill="url(#nodeGlow3)"/>
  <circle cx="310" cy="290" r="34" fill="#e0af68"/>
  <circle cx="310" cy="290" r="27" fill="#1a1b26"/>
  <circle cx="310" cy="290" r="17" fill="#e0af68"/>
  <circle cx="310" cy="290" r="11" fill="#24283b"/>
  
  <circle cx="490" cy="290" r="44" fill="url(#nodeGlow3)"/>
  <circle cx="490" cy="290" r="34" fill="#e0af68"/>
  <circle cx="490" cy="290" r="27" fill="#1a1b26"/>
  <circle cx="490" cy="290" r="17" fill="#e0af68"/>
  <circle cx="490" cy="290" r="11" fill="#24283b"/>
  
  <circle cx="670" cy="290" r="44" fill="url(#nodeGlow3)"/>
  <circle cx="670" cy="290" r="34" fill="#9ece6a"/>
  <circle cx="670" cy="290" r="27" fill="#1a1b26"/>
  <circle cx="670" cy="290" r="17" fill="#9ece6a"/>
  <circle cx="670" cy="290" r="11" fill="#24283b"/>
  
  <!-- Fourth level nodes (leaf nodes) -->
  <circle cx="80" cy="380" r="36" fill="url(#nodeGlow3)"/>
  <circle cx="80" cy="380" r="28" fill="#7dcfff"/>
  <circle cx="80" cy="380" r="22" fill="#1a1b26"/>
  <circle cx="80" cy="380" r="13" fill="#7dcfff"/>
  <circle cx="80" cy="380" r="7" fill="#24283b"/>
  
  <circle cx="180" cy="380" r="36" fill="url(#nodeGlow3)"/>
  <circle cx="180" cy="380" r="28" fill="#f7768e"/>
  <circle cx="180" cy="380" r="22" fill="#1a1b26"/>
  <circle cx="180" cy="380" r="13" fill="#f7768e"/>
  <circle cx="180" cy="380" r="7" fill="#24283b"/>
  
  <circle cx="260" cy="380" r="36" fill="url(#nodeGlow3)"/>
  <circle cx="260" cy="380" r="28" fill="#7dcfff"/>
  <circle cx="260" cy="380" r="22" fill="#1a1b26"/>
  <circle cx="260" cy="380" r="13" fill="#7dcfff"/>
  <circle cx="260" cy="380" r="7" fill="#24283b"/>
  
  <circle cx="360" cy="380" r="36" fill="url(#nodeGlow3)"/>
  <circle cx="360" cy="380" r="28" fill="#f7768e"/>
  <circle cx="360" cy="380" r="22" fill="#1a1b26"/>
  <circle cx="360" cy="380" r="13" fill="#f7768e"/>
  <circle cx="360" cy="380" r="7" fill="#24283b"/>
  
  <circle cx="440" cy="380" r="36" fill="url(#nodeGlow3)"/>
  <circle cx="440" cy="380" r="28" fill="#7dcfff"/>
  <circle cx="440" cy="380" r="22" fill="#1a1b26"/>
  <circle cx="440" cy="380" r="13" fill="#7dcfff"/>
  <circle cx="440" cy="380" r="7" fill="#24283b"/>
  
  <circle cx="540" cy="380" r="36" fill="url(#nodeGlow3)"/>
  <circle cx="540" cy="380" r="28" fill="#f7768e"/>
  <circle cx="540" cy="380" r="22" fill="#1a1b26"/>
  <circle cx="540" cy="380" r="13" fill="#f7768e"/>
  <circle cx="540" cy="380" r="7" fill="#24283b"/>
  
  <circle cx="620" cy="380" r="36" fill="url(#nodeGlow3)"/>
  <circle cx="620" cy="380" r="28" fill="#7dcfff"/>
  <circle cx="620" cy="380" r="22" fill="#1a1b26"/>
  <circle cx="620" cy="380" r="13" fill="#7dcfff"/>
  <circle cx="620" cy="380" r="7" fill="#24283b"/>
  
  <circle cx="720" cy="380" r="36" fill="url(#nodeGlow3)"/>
  <circle cx="720" cy="380" r="28" fill="#f7768e"/>
  <circle cx="720" cy="380" r="22" fill="#1a1b26"/>
  <circle cx="720" cy="380" r="13" fill="#f7768e"/>
  <circle cx="720" cy="380" r="7" fill="#24283b"/>
  
  <!-- Decorative corner elements -->
  <circle cx="20" cy="20" r="3" fill="#7aa2f7" opacity="0.4"/>
  <circle cx="780" cy="20" r="3" fill="#bb9af7" opacity="0.4"/>
  <circle cx="20" cy="430" r="3" fill="#9ece6a" opacity="0.4"/>
  <circle cx="780" cy="430" r="3" fill="#f7768e" opacity="0.4"/>
</svg>
