<svg xmlns="http://www.w3.org/2000/svg" viewBox="0 0 1280 400" font-family="monospace">
  <defs>
    <radialGradient id="glow-blue-1" cx="50%" cy="50%" r="50%">
      <stop offset="0%" stop-color="#7aa2f7" stop-opacity="0.48"/>
      <stop offset="100%" stop-color="#7aa2f7" stop-opacity="0"/>
    </radialGradient>
    <radialGradient id="glow-blue-2" cx="50%" cy="50%" r="50%">
      <stop offset="0%" stop-color="#7aa2f7" stop-opacity="0.48"/>
      <stop offset="100%" stop-color="#7aa2f7" stop-opacity="0"/>
    </radialGradient>
    <radialGradient id="glow-blue-3" cx="50%" cy="50%" r="50%">
      <stop offset="0%" stop-color="#7aa2f7" stop-opacity="0.48"/>
      <stop offset="100%" stop-color="#7aa2f7" stop-opacity="0"/>
    </radialGradient>
    <radialGradient id="glow-blue-4" cx="50%" cy="50%" r="50%">
      <stop offset="0%" stop-color="#7aa2f7" stop-opacity="0.48"/>
      <stop offset="100%" stop-color="#7aa2f7" stop-opacity="0"/>
    </radialGradient>
    <radialGradient id="glow-blue-5" cx="50%" cy="50%" r="50%">
      <stop offset="0%" stop-color="#7aa2f7" stop-opacity="0.48"/>
      <stop offset="100%" stop-color="#7aa2f7" stop-opacity="0"/>
    </radialGradient>
    <radialGradient id="glow-null" cx="50%" cy="50%" r="50%">
      <stop offset="0%" stop-color="#f7768e" stop-opacity="0.45"/>
      <stop offset="100%" stop-color="#f7768e" stop-opacity="0"/>
    </radialGradient>
    <marker id="arrowhead" markerWidth="8" markerHeight="6" refX="6" refY="3" orient="auto">
      <polygon points="0 0, 8 3, 0 6" fill="#bb9af7"/>
    </marker>
  </defs>

  <!-- Corner dots -->
  <circle cx="12" cy="12" r="3" fill="#7aa2f7" opacity="0.4"/>
  <circle cx="1268" cy="12" r="3" fill="#bb9af7" opacity="0.4"/>
  <circle cx="12" cy="388" r="3" fill="#9ece6a" opacity="0.4"/>
  <circle cx="1268" cy="388" r="3" fill="#e0af68" opacity="0.4"/>

  <!-- head label -->
  <text x="88" y="155" fill="#565f89" font-size="13" text-anchor="middle">head</text>
  <line x1="88" y1="162" x2="88" y2="178" stroke="#565f89" stroke-width="1.5" stroke-dasharray="3,2"/>

  <!-- NODE 1 -->
  <ellipse cx="105" cy="220" rx="90" ry="60" fill="url(#glow-blue-1)"/>
  <rect x="40" y="185" width="90" height="70" rx="6" fill="#24283b" stroke="#7aa2f7" stroke-width="1.5"/>
  <rect x="130" y="185" width="56" height="70" rx="6" fill="#24283b" stroke="#7aa2f7" stroke-width="1.5"/>
  <rect x="42" y="187" width="86" height="66" rx="5" fill="#1a1b26"/>
  <rect x="132" y="187" width="52" height="66" rx="5" fill="#1a1b26"/>
  <line x1="130" y1="187" x2="130" y2="253" stroke="#7aa2f7" stroke-width="1.5" opacity="0.6"/>
  <text x="85" y="215" fill="#565f89" font-size="11" text-anchor="middle">value</text>
  <text x="85" y="235" fill="#9ece6a" font-size="20" font-weight="bold" text-anchor="middle">42</text>
  <text x="158" y="215" fill="#565f89" font-size="11" text-anchor="middle">next</text>
  <text x="158" y="236" fill="#bb9af7" font-size="11" text-anchor="middle">→</text>
  <line x1="186" y1="220" x2="230" y2="220" stroke="#bb9af7" stroke-width="2" marker-end="url(#arrowhead)"/>

  <!-- NODE 2 -->
  <ellipse cx="305" cy="220" rx="90" ry="60" fill="url(#glow-blue-2)"/>
  <rect x="240" y="185" width="90" height="70" rx="6" fill="#24283b" stroke="#7aa2f7" stroke-width="1.5"/>
  <rect x="330" y="185" width="56" height="70" rx="6" fill="#24283b" stroke="#7aa2f7" stroke-width="1.5"/>
  <rect x="242" y="187" width="86" height="66" rx="5" fill="#1a1b26"/>
  <rect x="332" y="187" width="52" height="66" rx="5" fill="#1a1b26"/>
  <line x1="330" y1="187" x2="330" y2="253" stroke="#7aa2f7" stroke-width="1.5" opacity="0.6"/>
  <text x="285" y="215" fill="#565f89" font-size="11" text-anchor="middle">value</text>
  <text x="285" y="235" fill="#9ece6a" font-size="20" font-weight="bold" text-anchor="middle">17</text>
  <text x="358" y="215" fill="#565f89" font-size="11" text-anchor="middle">next</text>
  <text x="358" y="236" fill="#bb9af7" font-size="11" text-anchor="middle">→</text>
  <line x1="386" y1="220" x2="430" y2="220" stroke="#bb9af7" stroke-width="2" marker-end="url(#arrowhead)"/>

  <!-- NODE 3 -->
  <ellipse cx="505" cy="220" rx="90" ry="60" fill="url(#glow-blue-3)"/>
  <rect x="440" y="185" width="90" height="70" rx="6" fill="#24283b" stroke="#7aa2f7" stroke-width="1.5"/>
  <rect x="530" y="185" width="56" height="70" rx="6" fill="#24283b" stroke="#7aa2f7" stroke-width="1.5"/>
  <rect x="442" y="187" width="86" height="66" rx="5" fill="#1a1b26"/>
  <rect x="532" y="187" width="52" height="66" rx="5" fill="#1a1b26"/>
  <line x1="530" y1="187" x2="530" y2="253" stroke="#7aa2f7" stroke-width="1.5" opacity="0.6"/>
  <text x="485" y="215" fill="#565f89" font-size="11" text-anchor="middle">value</text>
  <text x="485" y="235" fill="#9ece6a" font-size="20" font-weight="bold" text-anchor="middle">8</text>
  <text x="558" y="215" fill="#565f89" font-size="11" text-anchor="middle">next</text>
  <text x="558" y="236" fill="#bb9af7" font-size="11" text-anchor="middle">→</text>
  <line x1="586" y1="220" x2="630" y2="220" stroke="#bb9af7" stroke-width="2" marker-end="url(#arrowhead)"/>

  <!-- NODE 4 -->
  <ellipse cx="705" cy="220" rx="90" ry="60" fill="url(#glow-blue-4)"/>
  <rect x="640" y="185" width="90" height="70" rx="6" fill="#24283b" stroke="#7aa2f7" stroke-width="1.5"/>
  <rect x="730" y="185" width="56" height="70" rx="6" fill="#24283b" stroke="#7aa2f7" stroke-width="1.5"/>
  <rect x="642" y="187" width="86" height="66" rx="5" fill="#1a1b26"/>
  <rect x="732" y="187" width="52" height="66" rx="5" fill="#1a1b26"/>
  <line x1="730" y1="187" x2="730" y2="253" stroke="#7aa2f7" stroke-width="1.5" opacity="0.6"/>
  <text x="685" y="215" fill="#565f89" font-size="11" text-anchor="middle">value</text>
  <text x="685" y="235" fill="#9ece6a" font-size="20" font-weight="bold" text-anchor="middle">93</text>
  <text x="758" y="215" fill="#565f89" font-size="11" text-anchor="middle">next</text>
  <text x="758" y="236" fill="#bb9af7" font-size="11" text-anchor="middle">→</text>
  <line x1="786" y1="220" x2="830" y2="220" stroke="#bb9af7" stroke-width="2" marker-end="url(#arrowhead)"/>

  <!-- NODE 5 -->
  <ellipse cx="905" cy="220" rx="90" ry="60" fill="url(#glow-blue-5)"/>
  <rect x="840" y="185" width="90" height="70" rx="6" fill="#24283b" stroke="#7aa2f7" stroke-width="1.5"/>
  <rect x="930" y="185" width="56" height="70" rx="6" fill="#24283b" stroke="#7aa2f7" stroke-width="1.5"/>
  <rect x="842" y="187" width="86" height="66" rx="5" fill="#1a1b26"/>
  <rect x="932" y="187" width="52" height="66" rx="5" fill="#1a1b26"/>
  <line x1="930" y1="187" x2="930" y2="253" stroke="#7aa2f7" stroke-width="1.5" opacity="0.6"/>
  <text x="885" y="215" fill="#565f89" font-size="11" text-anchor="middle">value</text>
  <text x="885" y="235" fill="#9ece6a" font-size="20" font-weight="bold" text-anchor="middle">56</text>
  <text x="958" y="215" fill="#565f89" font-size="11" text-anchor="middle">next</text>
  <text x="958" y="236" fill="#bb9af7" font-size="11" text-anchor="middle">→</text>
  <line x1="986" y1="220" x2="1040" y2="220" stroke="#bb9af7" stroke-width="2" marker-end="url(#arrowhead)"/>

  <!-- NULL -->
  <ellipse cx="1110" cy="220" rx="72" ry="48" fill="url(#glow-null)"/>
  <rect x="1050" y="195" width="120" height="50" rx="6" fill="#24283b" stroke="#f7768e" stroke-width="1.5" opacity="0.7"/>
  <rect x="1052" y="197" width="116" height="46" rx="5" fill="#1a1b26"/>
  <text x="1110" y="226" fill="#f7768e" font-size="18" font-weight="bold" text-anchor="middle" opacity="0.85">NULL</text>

  <text x="1240" y="375" fill="#565f89" font-size="13" text-anchor="end" opacity="0.6">Linked List</text>
</svg>
