<svg xmlns="http://www.w3.org/2000/svg" viewBox="0 0 300 364" font-family="monospace">
  <defs>
    <radialGradient id="tn-glow-1" cx="50%" cy="50%" r="50%">
      <stop offset="0%" stop-color="#7aa2f7" stop-opacity="0.48"/>
      <stop offset="100%" stop-color="#7aa2f7" stop-opacity="0"/>
    </radialGradient>
    <radialGradient id="tn-glow-2" cx="50%" cy="50%" r="50%">
      <stop offset="0%" stop-color="#7aa2f7" stop-opacity="0.48"/>
      <stop offset="100%" stop-color="#7aa2f7" stop-opacity="0"/>
    </radialGradient>
    <radialGradient id="tn-glow-3" cx="50%" cy="50%" r="50%">
      <stop offset="0%" stop-color="#7aa2f7" stop-opacity="0.48"/>
      <stop offset="100%" stop-color="#7aa2f7" stop-opacity="0"/>
    </radialGradient>
    <marker id="tn-arrow" markerWidth="8" markerHeight="6" refX="6" refY="3" orient="auto">
      <polygon points="0 0, 8 3, 0 6" fill="#bb9af7"/>
    </marker>
  </defs>

  <!-- head label -->
  <text x="150" y="52" fill="#565f89" font-size="12" text-anchor="middle">head</text>
  <line x1="150" y1="58" x2="150" y2="72" stroke="#565f89" stroke-width="1.5" stroke-dasharray="3,2"/>

  <!-- NODE 1 -->
  <ellipse cx="150" cy="110" rx="85" ry="48" fill="url(#tn-glow-1)"/>
  <rect x="60" y="80" width="84" height="60" rx="6" fill="#24283b" stroke="#7aa2f7" stroke-width="1.5"/>
  <rect x="62" y="82" width="80" height="56" rx="5" fill="#1a1b26"/>
  <rect x="144" y="80" width="52" height="60" rx="6" fill="#24283b" stroke="#7aa2f7" stroke-width="1.5"/>
  <rect x="146" y="82" width="48" height="56" rx="5" fill="#1a1b26"/>
  <line x1="144" y1="82" x2="144" y2="138" stroke="#7aa2f7" stroke-width="1.5" opacity="0.6"/>
  <text x="102" y="106" fill="#565f89" font-size="10" text-anchor="middle">value</text>
  <text x="102" y="124" fill="#9ece6a" font-size="18" font-weight="bold" text-anchor="middle">42</text>
  <text x="170" y="106" fill="#565f89" font-size="10" text-anchor="middle">next</text>
  <text x="170" y="124" fill="#bb9af7" font-size="12" text-anchor="middle">→</text>
  <line x1="170" y1="140" x2="170" y2="172" stroke="#bb9af7" stroke-width="2"/>
  <line x1="150" y1="172" x2="170" y2="172" stroke="#bb9af7" stroke-width="2" marker-end="url(#tn-arrow)"/>

  <!-- NODE 2 -->
  <ellipse cx="150" cy="215" rx="85" ry="48" fill="url(#tn-glow-2)"/>
  <rect x="60" y="185" width="84" height="60" rx="6" fill="#24283b" stroke="#7aa2f7" stroke-width="1.5"/>
  <rect x="62" y="187" width="80" height="56" rx="5" fill="#1a1b26"/>
  <rect x="144" y="185" width="52" height="60" rx="6" fill="#24283b" stroke="#7aa2f7" stroke-width="1.5"/>
  <rect x="146" y="187" width="48" height="56" rx="5" fill="#1a1b26"/>
  <line x1="144" y1="187" x2="144" y2="243" stroke="#7aa2f7" stroke-width="1.5" opacity="0.6"/>
  <text x="102" y="211" fill="#565f89" font-size="10" text-anchor="middle">value</text>
  <text x="102" y="229" fill="#9ece6a" font-size="18" font-weight="bold" text-anchor="middle">17</text>
  <text x="170" y="211" fill="#565f89" font-size="10" text-anchor="middle">next</text>
  <text x="170" y="229" fill="#bb9af7" font-size="12" text-anchor="middle">→</text>
  <line x1="170" y1="245" x2="170" y2="277" stroke="#bb9af7" stroke-width="2" marker-end="url(#tn-arrow)"/>

  <!-- NODE 3 -->
  <ellipse cx="150" cy="318" rx="85" ry="48" fill="url(#tn-glow-3)"/>
  <rect x="60" y="288" width="84" height="60" rx="6" fill="#24283b" stroke="#7aa2f7" stroke-width="1.5"/>
  <rect x="62" y="290" width="80" height="56" rx="5" fill="#1a1b26"/>
  <rect x="144" y="288" width="52" height="60" rx="6" fill="#24283b" stroke="#7aa2f7" stroke-width="1.5"/>
  <rect x="146" y="290" width="48" height="56" rx="5" fill="#1a1b26"/>
  <line x1="144" y1="290" x2="144" y2="346" stroke="#7aa2f7" stroke-width="1.5" opacity="0.6"/>
  <text x="102" y="314" fill="#565f89" font-size="10" text-anchor="middle">value</text>
  <text x="102" y="332" fill="#9ece6a" font-size="18" font-weight="bold" text-anchor="middle">8</text>
  <text x="170" y="314" fill="#565f89" font-size="10" text-anchor="middle">next</text>
  <text x="170" y="332" fill="#f7768e" font-size="10" font-weight="bold" text-anchor="middle">NULL</text>
</svg>
